<svg width="22" height="23" fill="none" xmlns="http://www.w3.org/2000/svg"><path d="M19.726 13.704a8.991 8.991 0 0 0 0-4.408l1.001-.758a1.251 1.251 0 0 0 .328-1.621l-1.059-1.835a1.252 1.252 0 0 0-1.568-.525l-1.167.492a8.922 8.922 0 0 0-3.807-2.205l-.156-1.249A1.25 1.25 0 0 0 12.059.5H9.942c-.629 0-1.163.471-1.24 1.095l-.157 1.249a8.912 8.912 0 0 0-3.807 2.205l-1.166-.492a1.254 1.254 0 0 0-1.569.526L.944 6.917a1.254 1.254 0 0 0 .328 1.622l1.001.758a9.025 9.025 0 0 0 .001 4.407l-1.001.758a1.251 1.251 0 0 0-.328 1.621l1.059 1.835c.315.545.988.77 1.568.525l1.166-.492a8.931 8.931 0 0 0 3.808 2.205l.156 1.25A1.25 1.25 0 0 0 9.941 22.5h2.117c.629 0 1.162-.471 1.24-1.095l.156-1.249a8.921 8.921 0 0 0 3.808-2.205l1.165.492a1.255 1.255 0 0 0 1.569-.526l1.059-1.834a1.254 1.254 0 0 0-.328-1.622l-1.001-.757ZM11 15.5c-2.206 0-4-1.794-4-4s1.794-4 4-4 4 1.794 4 4-1.794 4-4 4Z" fill="#000"/></svg>